<svg width="30" height="31" viewBox="0 0 30 31" fill="none" xmlns="http://www.w3.org/2000/svg">
<path d="M22.6468 30.0559C21.0671 30.0559 19.4035 29.6785 17.6841 28.9515C16.0065 28.2386 14.315 27.26 12.6654 26.0718C11.0298 24.8695 9.45014 23.5275 7.95433 22.0596C6.47251 20.5638 5.13048 18.9842 3.94222 17.3625C2.73998 15.685 1.7754 14.0075 1.0904 12.3858C0.363467 10.6524 0 8.97484 0 7.39515C0 6.30475 0.195713 5.27027 0.573159 4.30569C0.964585 3.31314 1.59366 2.39049 2.44641 1.59366C3.52283 0.531221 4.75303 0 6.0671 0C6.6123 0 7.17148 0.125815 7.64678 0.349487C8.19199 0.601118 8.65331 0.978565 8.98882 1.48183L12.2321 6.05312C12.5256 6.45853 12.7493 6.84995 12.9031 7.24138C13.0848 7.66076 13.1827 8.08015 13.1827 8.48555C13.1827 9.01678 13.0289 9.53402 12.7353 10.0233C12.5256 10.4007 12.2041 10.8062 11.7987 11.2116L10.8481 12.2041C10.8621 12.246 10.876 12.274 10.89 12.302C11.0578 12.5955 11.3933 13.0988 12.0363 13.8537C12.7213 14.6365 13.3644 15.3495 14.0075 16.0065C14.8322 16.8173 15.5172 17.4604 16.1603 17.9916C16.9571 18.6626 17.4744 18.9981 17.7819 19.1519L17.754 19.2218L18.7745 18.2153C19.2078 17.7819 19.6272 17.4604 20.0326 17.2507C20.8015 16.7754 21.7801 16.6915 22.7586 17.0969C23.1221 17.2507 23.5135 17.4604 23.9329 17.754L28.5741 21.0531C29.0913 21.4026 29.4688 21.85 29.6925 22.3812C29.9021 22.9124 30 23.4017 30 23.891C30 24.562 29.8462 25.233 29.5527 25.8621C29.2591 26.4911 28.8956 27.0363 28.4343 27.5396C27.6375 28.4203 26.7707 29.0494 25.7642 29.4548C24.7996 29.8462 23.7512 30.0559 22.6468 30.0559ZM6.0671 2.09692C5.29823 2.09692 4.58528 2.43243 3.90028 3.10345C3.25722 3.70457 2.80988 4.3616 2.53029 5.07456C2.23672 5.80149 2.09692 6.57036 2.09692 7.39515C2.09692 8.69525 2.40447 10.1072 3.01957 11.561C3.64865 13.0429 4.52936 14.5806 5.64772 16.1184C6.76608 17.6561 8.03821 19.1519 9.43616 20.5638C10.8341 21.9478 12.3439 23.2339 13.8956 24.3663C15.4054 25.4706 16.9571 26.3653 18.4949 27.0084C20.8854 28.0289 23.1221 28.2665 24.9674 27.4977C25.6803 27.2041 26.3094 26.7568 26.8826 26.1137C27.2041 25.7642 27.4557 25.3868 27.6654 24.9394C27.8332 24.5899 27.9171 24.2265 27.9171 23.863C27.9171 23.6393 27.8751 23.4157 27.7633 23.164C27.7213 23.0801 27.6375 22.9264 27.3719 22.7446L22.7307 19.4455C22.4511 19.2498 22.1994 19.11 21.9618 19.0121C21.6542 18.8863 21.5284 18.7605 21.0531 19.0541C20.7735 19.1938 20.5219 19.4035 20.2423 19.6831L19.1799 20.7316C18.6347 21.2628 17.7959 21.3886 17.1528 21.151L16.7754 20.9832C16.2022 20.6757 15.5312 20.2004 14.7903 19.5713C14.1193 18.9981 13.3924 18.3271 12.5116 17.4604C11.8267 16.7614 11.1417 16.0205 10.4287 15.1957C9.77167 14.4268 9.29637 13.7698 9.0028 13.2246L8.83504 12.8052C8.75117 12.4837 8.72321 12.302 8.72321 12.1062C8.72321 11.603 8.90494 11.1556 9.25443 10.8062L10.3029 9.71575C10.5825 9.43616 10.7922 9.17055 10.932 8.9329C11.0438 8.75117 11.0857 8.59739 11.0857 8.4576C11.0857 8.34576 11.0438 8.17801 10.9739 8.01025C10.876 7.78658 10.7223 7.53495 10.5266 7.26934L7.28332 2.68406C7.14352 2.48835 6.97577 2.34856 6.76608 2.2507C6.5424 2.15284 6.30475 2.09692 6.0671 2.09692ZM17.754 19.2358L17.5303 20.1864L17.9077 19.2078C17.8378 19.1938 17.7819 19.2078 17.754 19.2358Z" fill="#292D32"/>
</svg>
