<svg width="31" height="31" viewBox="0 0 31 31" fill="none" xmlns="http://www.w3.org/2000/svg">
<path fill-rule="evenodd" clip-rule="evenodd" d="M13.2974 1.43813C14.6606 0.46438 16.4919 0.464346 17.8551 1.43804L28.0672 8.73208C29.8469 10.0033 30.9032 12.0557 30.9032 14.2428V25.3614C30.9032 28.3141 28.5095 30.7078 25.5568 30.7078H21.4827C19.3174 30.7078 17.562 28.9524 17.562 26.7871V24.6485C17.562 24.058 17.0833 23.5793 16.4928 23.5793H14.6597C14.0692 23.5793 13.5904 24.058 13.5904 24.6485V26.7871C13.5904 28.9524 11.8351 30.7078 9.66974 30.7078H5.59689C2.64415 30.7078 0.250488 28.3141 0.250488 25.3614V14.2427C0.250488 12.0557 1.30666 10.0033 3.08628 8.73209L13.2974 1.43813ZM16.6121 3.17829C15.9925 2.7357 15.1601 2.73571 14.5404 3.17833L4.32933 10.4723C3.11169 11.3421 2.38905 12.7463 2.38905 14.2427V25.3614C2.38905 27.133 3.82525 28.5692 5.59689 28.5692H9.66974C10.654 28.5692 11.4519 27.7713 11.4519 26.7871V24.6485C11.4519 22.8769 12.8881 21.4407 14.6597 21.4407H16.4928C18.2644 21.4407 19.7006 22.8769 19.7006 24.6485V26.7871C19.7006 27.7713 20.4985 28.5692 21.4827 28.5692H25.5568C27.3284 28.5692 28.7646 27.133 28.7646 25.3614V14.2428C28.7646 12.7464 28.0419 11.3421 26.8242 10.4723L16.6121 3.17829Z" fill="#14142B"/>
</svg>
