<svg width="22" height="20" viewBox="0 0 22 20" fill="none" xmlns="http://www.w3.org/2000/svg">
<path d="M20.5652 2.77988H1.43478C0.650435 2.77988 0 2.14978 0 1.38994C0 0.630107 0.650435 0 1.43478 0H20.5652C21.3496 0 22 0.630107 22 1.38994C22 2.14978 21.3496 2.77988 20.5652 2.77988Z" fill="black"/>
<path d="M20.5652 11.1195H1.43478C0.650435 11.1195 0 10.4894 0 9.7296C0 8.96977 0.650435 8.33966 1.43478 8.33966H20.5652C21.3496 8.33966 22 8.96977 22 9.7296C22 10.4894 21.3496 11.1195 20.5652 11.1195Z" fill="black"/>
<path d="M20.5652 19.4592H1.43478C0.650435 19.4592 0 18.8291 0 18.0693C0 17.3095 0.650435 16.6794 1.43478 16.6794H20.5652C21.3496 16.6794 22 17.3095 22 18.0693C22 18.8291 21.3496 19.4592 20.5652 19.4592Z" fill="black"/>
</svg>
