<svg width="30" height="30" viewBox="0 0 30 30" fill="none" xmlns="http://www.w3.org/2000/svg">
<path d="M15 30C6.72558 30 0 23.2744 0 15C0 6.72558 6.72558 0 15 0C23.2744 0 30 6.72558 30 15C30 23.2744 23.2744 30 15 30ZM15 2.09302C7.88372 2.09302 2.09302 7.88372 2.09302 15C2.09302 22.1163 7.88372 27.907 15 27.907C22.1163 27.907 27.907 22.1163 27.907 15C27.907 7.88372 22.1163 2.09302 15 2.09302Z" fill="#292D32"/>
<path d="M13.0178 19.9955C12.7387 19.9955 12.4736 19.8839 12.2783 19.6885L8.32937 15.7397C7.92472 15.335 7.92472 14.6653 8.32937 14.2606C8.73402 13.856 9.40379 13.856 9.80844 14.2606L13.0178 17.4699L20.1899 10.2978C20.5946 9.89316 21.2643 9.89316 21.669 10.2978C22.0736 10.7025 22.0736 11.3722 21.669 11.7769L13.7573 19.6885C13.562 19.8839 13.2969 19.9955 13.0178 19.9955Z" fill="#292D32"/>
</svg>
