<svg width="32" height="25" viewBox="0 0 32 25" fill="none" xmlns="http://www.w3.org/2000/svg">
<path d="M31.985 12.5C31.985 5.6125 24.8171 0 16.0208 0C7.22457 0 0.0566406 5.6125 0.0566406 12.5C0.0566406 16.125 2.05217 19.3875 5.21308 21.675C5.21308 21.6875 5.21308 21.6875 5.19711 21.7C5.35676 21.825 5.54833 21.925 5.70797 22.0375C5.80375 22.1 5.88357 22.1625 5.97936 22.2125C6.26672 22.4 6.586 22.575 6.88932 22.75C7.00107 22.8125 7.09685 22.8625 7.2086 22.925C7.51192 23.0875 7.83121 23.2375 8.16646 23.375C8.2782 23.425 8.40592 23.4875 8.51767 23.5375C8.83695 23.675 9.1722 23.8 9.52341 23.9125C9.65113 23.9625 9.77884 24.0125 9.90655 24.05C10.2578 24.1625 10.609 24.2625 10.9602 24.35C11.0879 24.3875 11.2156 24.425 11.3433 24.45C11.7265 24.5375 12.1096 24.6125 12.4928 24.6875C12.6045 24.7125 12.7163 24.7375 12.844 24.75C13.291 24.825 13.738 24.875 14.2009 24.9125C14.2648 24.9125 14.3286 24.925 14.3925 24.9375C14.9353 24.975 15.4781 25 16.0208 25C16.5636 25 17.1064 24.975 17.6332 24.9375C17.6971 24.9375 17.7609 24.925 17.8248 24.9125C18.2878 24.875 18.7348 24.825 19.1818 24.75C19.2935 24.7375 19.4053 24.7 19.533 24.6875C19.9161 24.6125 20.3152 24.55 20.6824 24.45C20.8101 24.4125 20.9378 24.375 21.0655 24.35C21.4167 24.25 21.7839 24.1625 22.1192 24.05C22.2469 24.0125 22.3746 23.9625 22.5023 23.9125C22.8376 23.8 23.1728 23.675 23.5081 23.5375C23.6358 23.4875 23.7475 23.425 23.8593 23.375C24.1786 23.225 24.4978 23.0875 24.8171 22.925C24.9289 22.875 25.0247 22.8125 25.1364 22.75C25.4557 22.575 25.759 22.4 26.0464 22.2125C26.1421 22.15 26.222 22.0875 26.3178 22.0375C26.4934 21.925 26.669 21.8125 26.8286 21.7C26.8286 21.6875 26.8286 21.6875 26.8126 21.675C29.9895 19.3875 31.985 16.125 31.985 12.5ZM23.9072 18.7125C19.5809 16.4375 12.4928 16.4375 8.13453 18.7125C7.4321 19.075 6.85739 19.5 6.37847 19.9625C3.95191 18.0375 2.45127 15.4 2.45127 12.5C2.45127 6.6375 8.53363 1.875 16.0208 1.875C23.5081 1.875 29.5904 6.6375 29.5904 12.5C29.5904 15.4 28.0898 18.0375 25.6632 19.9625C25.2003 19.5 24.6096 19.075 23.9072 18.7125Z" fill="#292D32"/>
<path d="M16.0208 6.16211C12.7162 6.16211 10.0342 8.26211 10.0342 10.8496C10.0342 13.3871 12.5725 15.4496 15.9409 15.5246H16.0846H16.1964H16.2283C19.4531 15.4371 21.9914 13.3871 22.0073 10.8496C22.0073 8.26211 19.3253 6.16211 16.0208 6.16211Z" fill="#292D32"/>
</svg>
