<svg width="164" height="206" viewBox="0 0 164 206" fill="none" xmlns="http://www.w3.org/2000/svg">
<path fill-rule="evenodd" clip-rule="evenodd" d="M163.299 29.6908C163.299 13.2941 150.005 0 133.609 0C119.78 0 108.191 9.46889 104.89 22.2681H61.8558C52.3053 22.2681 44.5362 30.0372 44.5362 39.5877V101.444H12.3712C5.43342 101.444 0 106.877 0 113.815V163.299C0 170.121 5.54971 175.671 12.3712 175.671H44.5362V188.042C44.5362 197.59 52.3053 205.361 61.8558 205.361H126.186C135.734 205.361 143.506 197.59 143.506 188.042V57.6571C155.031 53.5771 163.299 42.6137 163.299 29.6908ZM12.3712 106.392H91.5466C95.639 106.392 98.9693 109.722 98.9693 113.815V138.557H4.94847V113.815C4.94847 109.584 8.14023 106.392 12.3712 106.392ZM4.94847 163.299V158.351H98.9693V163.299C98.9693 167.392 95.639 170.722 91.5466 170.722H12.3712C8.27878 170.722 4.94847 167.392 4.94847 163.299ZM138.557 188.042C138.557 194.863 133.007 200.413 126.186 200.413H61.8558C55.0344 200.413 49.4847 194.863 49.4847 188.042V175.671H91.5466C98.3681 175.671 103.918 170.121 103.918 163.299V113.815C103.918 106.993 98.3681 101.444 91.5466 101.444H49.4847V39.5877C49.4847 32.7663 55.0344 27.2166 61.8558 27.2166H104.042C103.975 28.0355 103.918 28.8545 103.918 29.6908C103.918 46.0875 117.212 59.3816 133.609 59.3816C135.299 59.3816 136.944 59.2084 138.557 58.9362V188.042ZM146.45 24.0594L130.862 38.9049C129.902 39.8178 128.393 39.8154 127.44 38.8949L120.76 32.4619C119.775 31.5143 119.745 29.9481 120.693 28.9634C121.641 27.9786 123.207 27.9489 124.192 28.8966L129.165 33.6867L143.038 20.4743C144.028 19.5316 145.594 19.5712 146.536 20.5584C147.477 21.5506 147.44 23.1168 146.45 24.0594ZM98.9698 37.1135H89.0728C87.7046 37.1135 86.5986 38.2219 86.5986 39.5877C86.5986 40.9535 87.7046 42.0619 89.0728 42.0619H98.9698C100.338 42.0619 101.444 40.9535 101.444 39.5877C101.444 38.2219 100.338 37.1135 98.9698 37.1135ZM79.1758 126.681C77.9386 127.918 76.2067 128.413 74.2273 128.413C70.0211 128.413 66.8046 125.196 66.8046 120.99C66.8046 116.784 70.0211 113.567 74.2273 113.567C76.2067 113.567 77.9386 114.31 79.1758 115.299C80.4129 114.062 82.1448 113.567 84.1242 113.567C88.3304 113.567 91.5469 116.784 91.5469 120.99C91.5469 125.196 88.3304 128.413 84.1242 128.413C82.1448 128.66 80.4129 127.918 79.1758 126.681Z" fill="#171717"/>
</svg>
