<svg width="194" height="214" viewBox="0 0 194 214" fill="none" xmlns="http://www.w3.org/2000/svg">
<path fill-rule="evenodd" clip-rule="evenodd" d="M193.982 105.584C193.982 77.4794 174.668 54.6151 150.93 54.6151C149.272 54.6151 147.644 54.7536 146.034 54.9689C140.548 23.5288 117.345 0.924194 90.0639 0.924194C58.4111 0.924194 32.6617 31.4463 32.6617 68.9656C32.6617 72.8056 32.9636 76.7347 33.55 80.8889C17.0542 83.3285 4.45545 100.037 4.45545 120.182C4.45545 140.179 16.6608 156.534 33.3495 159.221L27.7132 166.945H35.3834V189.708C35.3834 191.076 36.4918 192.182 37.8576 192.182C39.2234 192.182 40.3318 191.076 40.3318 189.708V166.945H47.5071L41.8782 159.57C54.8531 157.882 65.6903 147.49 69.7727 132.873C74.1868 134.862 78.6775 136.171 82.9505 136.725L72.002 152.1H88.0845V159.77C88.0845 162.101 85.9616 164.224 83.6309 164.224H78.1876C73.3332 164.224 69.5278 168.026 69.5278 173.131C69.5278 177.988 73.3332 181.791 78.1876 181.791H100.951C103.031 181.791 104.662 183.421 104.662 185.502C104.662 187.583 103.031 189.213 100.951 189.213H91.7959C87.5674 189.213 84.1258 192.655 84.1258 196.886V211.234C84.1258 212.602 85.2342 213.708 86.6 213.708C87.9658 213.708 89.0742 212.602 89.0742 211.234V196.883C89.0742 195.255 90.4821 194.159 91.7959 194.159H100.951C105.807 194.159 109.61 190.356 109.61 185.5C109.61 180.643 105.807 176.84 100.951 176.84H78.1876C76.1068 176.84 74.4763 175.209 74.4763 172.881C74.4763 170.8 76.1068 169.17 78.1876 169.17H83.6309C88.7278 169.17 93.033 164.864 93.033 159.768V152.097H107.136L95.0817 136.797C101.586 135.973 107.784 133.964 113.559 130.787C120.161 144.452 131.933 154.153 145.709 156.138L137.817 167.193H148.456V189.708C148.456 191.076 149.562 192.182 150.93 192.182C152.298 192.182 153.404 191.076 153.404 189.708V167.193H163.796L155.129 156.304C176.905 153.795 193.982 132.012 193.982 105.584ZM173.698 68.7701C177.095 75.891 179.136 84.0609 179.136 92.9657C179.136 119.935 161.074 141.708 138.559 141.708C133.63 141.708 128.833 140.563 124.421 138.576C117.283 130.208 112.827 118.522 112.827 105.584C112.827 80.2085 129.919 59.5635 150.93 59.5635C159.471 59.5635 167.337 63.0151 173.698 68.7701ZM9.40391 120.182C9.40391 102.435 20.2609 87.7525 34.4308 85.7607C37.776 102.009 46.2848 116.535 58.1859 125.903L58.2811 125.971L58.427 126.076C58.5639 126.175 58.7012 126.273 58.8366 126.373C56.5108 137.23 49.9244 145.974 40.3318 149.628C39.9607 149.752 39.6515 149.875 39.3422 149.999C39.0329 150.123 38.7236 150.247 38.3524 150.37C37.9813 150.494 37.5483 150.556 37.1153 150.618C36.6823 150.68 36.2493 150.742 35.8782 150.865C31.6819 151.511 27.4881 151.192 23.4303 150.012C14.961 144.049 9.40391 132.974 9.40391 120.182ZM93.2804 132.059C92.5802 132.059 91.88 132.123 91.1798 132.195C89.2252 132.39 87.3645 132.398 85.3208 132.068C80.0829 131.631 74.5059 129.928 69.1492 127.125C66.3676 125.735 63.8108 123.876 61.1653 121.953L61.1599 121.949C49.7339 112.955 41.5887 98.6292 38.8127 82.663C38.0036 77.8085 37.6102 73.3277 37.6102 68.9656C37.6102 34.1754 61.1401 5.87266 90.0639 5.87266C114.96 5.87266 136.174 26.8393 141.196 55.9784C122.137 61.2237 107.878 81.4481 107.878 105.584C107.878 112.93 109.224 119.898 111.597 126.214C105.835 129.458 99.6244 131.435 93.2804 132.059ZM89.0588 15.7843C81.2205 16.6231 72.672 18.7658 63.2996 28.6429C53.4695 38.7477 51.6163 49.2508 51.0076 52.7024C50.7701 54.0484 51.6682 55.33 53.0142 55.57C53.1602 55.5948 53.3037 55.6071 53.4472 55.6071C54.6274 55.6071 55.669 54.7634 55.8818 53.5634C56.4237 50.483 58.079 41.1081 66.8674 32.0722C75.5743 22.8953 83.1578 21.3934 89.5834 20.7056C90.9417 20.5596 91.9265 19.3423 91.7805 17.9815C91.637 16.6206 90.4073 15.6384 89.0588 15.7843ZM112.827 31.1098C117.882 31.1098 121.981 35.2072 121.981 40.2645C121.981 45.3194 117.882 49.4192 112.827 49.4192C107.769 49.4192 103.672 45.3194 103.672 40.2645C103.672 35.2072 107.772 31.1098 112.827 31.1098ZM8.19857 71.3184C10.7173 70.9349 12.9837 69.579 14.5796 67.5032C16.1829 65.4174 16.8485 62.8516 16.4551 60.271C16.0716 57.7522 14.7157 55.4858 12.6423 53.8899C11.5586 53.0536 10.0048 53.259 9.17342 54.3427C8.33961 55.4264 8.54249 56.9778 9.6262 57.8116C11.7986 59.4842 12.2538 62.4137 10.658 64.4846C9.84146 65.5436 8.70332 66.2339 7.45135 66.4244C6.21919 66.6075 4.98454 66.2883 3.98248 65.5164C2.89877 64.6801 1.34495 64.8854 0.513603 65.9691C-0.320213 67.0529 -0.117325 68.6067 0.966389 69.438C2.66124 70.7419 4.67279 71.4248 6.75115 71.4248C7.23115 71.4298 7.7161 71.3927 8.19857 71.3184ZM155.384 42.7388C155.146 42.7388 154.906 42.7042 154.669 42.6324C153.357 42.2365 152.62 40.8559 153.016 39.552L156.232 28.9128C156.611 27.6658 157.887 26.9334 159.154 27.2179L168.767 29.42L171.323 20.7627C171.711 19.4538 173.082 18.7066 174.396 19.0901C175.707 19.4761 176.454 20.8517 176.068 22.1631L172.852 33.0497C172.48 34.3041 171.206 35.0538 169.925 34.7594L160.297 32.5524L157.751 40.9796C157.427 42.0485 156.447 42.7388 155.384 42.7388Z" fill="#171717"/>
</svg>
